<svg id="排程作業" xmlns="http://www.w3.org/2000/svg" width="24" height="24" viewBox="0 0 24 24">
  <rect id="Rectangle_37" data-name="Rectangle 37" width="24" height="24" fill="none"/>
  <path id="Path_10702" data-name="Path 10702" d="M10.79,20H5V10H19v2.96a1,1,0,0,0,1.71.71h0a.99.99,0,0,0,.29-.71V6a2.006,2.006,0,0,0-2-2H18V3a1,1,0,0,0-1-1h0a1,1,0,0,0-1,1V4H8V3A1,1,0,0,0,7,2H7A1,1,0,0,0,6,3V4H5A1.991,1.991,0,0,0,3.01,6L3,20a2,2,0,0,0,2,2h5.79a1,1,0,0,0,.71-1.71h0A1.033,1.033,0,0,0,10.79,20Zm2.92-1.74a1,1,0,0,1,1.41,0l1.41,1.41,3.54-3.54a1,1,0,0,1,1.41,1.41l-4.24,4.24a1,1,0,0,1-1.41,0l-2.12-2.12A.984.984,0,0,1,13.71,18.26Zm-2.42-1.97a1,1,0,0,1-1.41,0L9,15.41l-.88.88a1,1,0,1,1-1.41-1.41L7.59,14l-.88-.88a1,1,0,0,1,1.41-1.41l.88.88.88-.88a1,1,0,0,1,1.41,1.41l-.88.88.88.88A1,1,0,0,1,11.29,16.29Z" fill="#393939"/>
</svg>
