<svg xmlns="http://www.w3.org/2000/svg" xmlns:xlink="http://www.w3.org/1999/xlink" width="36" height="28" viewBox="0 0 36 28">
  <defs>
    <clipPath id="clip-path">
      <rect id="Rectangle_41" data-name="Rectangle 41" width="36" height="28" transform="translate(0 0.109)" fill="#0f62fe"/>
    </clipPath>
  </defs>
  <g id="Group_10998" data-name="Group 10998" transform="translate(0 -0.229)">
    <path id="Path_10707" data-name="Path 10707" d="M43,5V6.485h2.227V9.455h1.484V5Z" transform="translate(-11.074 -1.273)" fill="#0f62fe"/>
    <path id="Path_10708" data-name="Path 10708" d="M0,5V28.017H13.059L14.541,29.5H21.1l1.48-1.484h13.06V19.85H34.154v6.682H21.962l-1.48,1.485H15.158l-1.483-1.485H1.485V6.485h.742V5Z" transform="translate(0 -1.273)" fill="#0f62fe"/>
    <g id="Group_10997" data-name="Group 10997" transform="translate(0 0.119)">
      <g id="Group_10996" data-name="Group 10996" clip-path="url(#clip-path)">
        <path id="Path_10709" data-name="Path 10709" d="M19.592,25.759h-2.6l-.223-.3a2.914,2.914,0,0,0-2.376-1.188H4V2H7.712V3.485H5.485v19.3h8.91a4.344,4.344,0,0,1,3.321,1.485h.391V7.2a3.451,3.451,0,0,0-3.712-3.712H12.167V2h2.227a4.92,4.92,0,0,1,5.2,5.2Z" transform="translate(-1.03 -0.62)" fill="#0f62fe"/>
        <path id="Path_10710" data-name="Path 10710" d="M25.68,25.759H23V7.2A4.92,4.92,0,0,1,28.2,2H38.592V6.455H37.107V3.485H28.2A3.451,3.451,0,0,0,24.485,7.2V24.274h.321A3.822,3.822,0,0,1,28.2,22.789h8.91V21.3h1.485v2.97H28.2c-1.541,0-2.021.52-2.31,1.083Z" transform="translate(-5.923 -0.62)" fill="#0f62fe"/>
        <path id="Path_10711" data-name="Path 10711" d="M13.94,11.039l-2.97-1.98L8,11.039V0h5.94ZM10.97,7.275l1.485.99V1.485H9.485v6.78Z" transform="translate(-2.06 -0.105)" fill="#0f62fe"/>
        <path id="Path_10712" data-name="Path 10712" d="M35.986,19.928a2.987,2.987,0,1,1,2.987-2.987,2.99,2.99,0,0,1-2.987,2.987m0-4.489a1.5,1.5,0,1,0,1.5,1.5,1.5,1.5,0,0,0-1.5-1.5" transform="translate(-8.498 -3.698)" fill="#0f62fe"/>
        <path id="Path_10713" data-name="Path 10713" d="M35.963,22.85h-2.97a.742.742,0,0,1-.742-.742v-1.2a5.967,5.967,0,0,1-1.4-.814l-1.045.6a.743.743,0,0,1-1.014-.272l-1.485-2.572a.742.742,0,0,1,.272-1.014l1.039-.6a5.606,5.606,0,0,1,0-1.628l-1.034-.6A.742.742,0,0,1,27.305,13l1.485-2.572a.741.741,0,0,1,1.014-.272l1.019.589A5.957,5.957,0,0,1,32.25,9.91V8.742A.742.742,0,0,1,32.993,8h2.97a.742.742,0,0,1,.742.742V9.9a5.976,5.976,0,0,1,1.446.835l1-.578a.742.742,0,0,1,1.014.272L41.65,13a.742.742,0,0,1-.272,1.014l-1,.579a5.663,5.663,0,0,1,.059.816,5.887,5.887,0,0,1-.063.847l1.008.582a.742.742,0,0,1,.272,1.014l-1.485,2.572a.743.743,0,0,1-1.014.272L38.125,20.1a5.94,5.94,0,0,1-1.42.815v1.189a.742.742,0,0,1-.742.742m-2.227-1.485H35.22v-.973a.742.742,0,0,1,.533-.713,4.451,4.451,0,0,0,1.782-1.022.746.746,0,0,1,.879-.1l.836.483.742-1.286-.823-.476a.741.741,0,0,1-.35-.817,4.5,4.5,0,0,0,.129-1.051,4.425,4.425,0,0,0-.124-1.025.744.744,0,0,1,.352-.813l.816-.471-.742-1.286-.813.47a.744.744,0,0,1-.882-.1,4.459,4.459,0,0,0-1.8-1.04.744.744,0,0,1-.533-.713V9.485H33.735v.947a.744.744,0,0,1-.528.711,4.451,4.451,0,0,0-1.784,1.044.743.743,0,0,1-.884.106l-.834-.482L28.963,13.1l.846.488a.743.743,0,0,1,.352.812,4.281,4.281,0,0,0,.006,2.046.742.742,0,0,1-.35.815l-.853.493.742,1.286.857-.494a.741.741,0,0,1,.88.1,4.479,4.479,0,0,0,1.766,1.026.744.744,0,0,1,.528.711Z" transform="translate(-7.006 -2.165)" fill="#0f62fe"/>
      </g>
    </g>
  </g>
</svg>
