<svg xmlns="http://www.w3.org/2000/svg" xmlns:xlink="http://www.w3.org/1999/xlink" width="29.51" height="32.59" viewBox="0 0 29.51 32.59">
  <defs>
    <clipPath id="clip-path">
      <rect id="Rectangle_34" data-name="Rectangle 34" width="29.51" height="32.59" fill="#ff5e15"/>
    </clipPath>
  </defs>
  <g id="訊息專區" transform="translate(0 0)">
    <g id="Group_10978" data-name="Group 10978" transform="translate(0 0)" clip-path="url(#clip-path)">
      <path id="Path_10690" data-name="Path 10690" d="M19.427,25.914H16.683A.686.686,0,0,1,16,25.228V23.656a2.193,2.193,0,0,1-.346-.146l-.842.853a.683.683,0,0,1-.485.2h0a.684.684,0,0,1-.483-.2l-1.843-1.831a.686.686,0,0,1,0-.977l.836-.82a2.02,2.02,0,0,1-.139-.314h-1.5a.686.686,0,0,1-.686-.686V17a.686.686,0,0,1,.686-.686h1.5a2.093,2.093,0,0,1,.147-.339l-.844-.829a.686.686,0,0,1,0-.973l1.84-1.844a.685.685,0,0,1,.971,0l.845.849A2.151,2.151,0,0,1,16,13.024v-.829a.686.686,0,0,1,.686-.686h2.744a.686.686,0,0,1,.686.686v.832a2,2,0,0,1,.3.131l.785-.826a.686.686,0,0,1,.981-.012l1.843,1.838a.686.686,0,0,1,0,.973l-.845.839a2.19,2.19,0,0,1,.148.342h.906a.686.686,0,0,1,.686.686v2.744a.686.686,0,0,1-.686.686h-.907a2,2,0,0,1-.132.305l.836.8a.686.686,0,0,1,.014.98L22.21,24.352a.688.688,0,0,1-.487.2h0a.686.686,0,0,1-.488-.207l-.813-.833a2.07,2.07,0,0,1-.306.136v1.577a.686.686,0,0,1-.686.686m-2.058-1.372h1.372v-1.43a.685.685,0,0,1,.577-.677,1.075,1.075,0,0,0,.58-.213c.082-.057.169-.117.281-.181a.686.686,0,0,1,.832.117l.716.733.844-.851-.733-.7a.686.686,0,0,1-.122-.837c.06-.1.115-.187.167-.265a1.155,1.155,0,0,0,.22-.606.685.685,0,0,1,.677-.577h.762V17.683H22.78a.685.685,0,0,1-.677-.577,1.28,1.28,0,0,0-.237-.648c-.05-.075-.1-.155-.157-.251a.686.686,0,0,1,.112-.828l.742-.737-.857-.855-.689.726a.685.685,0,0,1-.838.123c-.11-.064-.2-.123-.277-.178a1.085,1.085,0,0,0-.584-.213.685.685,0,0,1-.577-.677v-.685H17.369v.685a.685.685,0,0,1-.577.677,1.321,1.321,0,0,0-.665.243c-.073.047-.152.1-.244.152a.687.687,0,0,1-.827-.112l-.741-.745-.866.868.739.728a.686.686,0,0,1,.115.83c-.055.1-.106.175-.156.249a1.293,1.293,0,0,0-.237.651.685.685,0,0,1-.677.576H11.881v1.372h1.352a.685.685,0,0,1,.677.576,1.123,1.123,0,0,0,.22.6c.055.08.113.166.175.274a.685.685,0,0,1-.115.83l-.735.721.862.855.738-.748a.686.686,0,0,1,.829-.114c.089.051.164.1.235.145a1.361,1.361,0,0,0,.674.243.685.685,0,0,1,.577.677Z" transform="translate(-3.3 -3.614)" fill="#ff5e15"/>
      <path id="Path_10691" data-name="Path 10691" d="M20.177,23.028a2.76,2.76,0,1,1,2.76-2.76,2.763,2.763,0,0,1-2.76,2.76m0-4.147a1.388,1.388,0,1,0,1.388,1.387,1.389,1.389,0,0,0-1.388-1.387" transform="translate(-5.47 -5.498)" fill="#ff5e15"/>
      <path id="Path_10692" data-name="Path 10692" d="M20.879,29.862H19.507v-1.4c0-2.238,1.071-3.195,2.428-4.405.313-.279.65-.581,1.006-.925a9.326,9.326,0,0,0,2.817-6.768c0-4.548-4.119-8.389-9-8.389s-9,3.841-9,8.389a9.326,9.326,0,0,0,2.817,6.768c.355.344.692.646,1.006.925,1.357,1.211,2.428,2.167,2.428,4.405v1.4H12.647v-1.4c0-1.624-.7-2.248-1.97-3.382-.326-.292-.677-.605-1.047-.964A10.693,10.693,0,0,1,6.4,16.367c0-5.292,4.748-9.761,10.367-9.761s10.367,4.47,10.367,9.761A10.693,10.693,0,0,1,23.9,24.121c-.37.359-.722.672-1.047.964-1.27,1.134-1.97,1.758-1.97,3.382Z" transform="translate(-2.009 -2.074)" fill="#ff5e15"/>
      <rect id="Rectangle_22" data-name="Rectangle 22" width="8.232" height="1.372" transform="translate(10.639 28.474)" fill="#ff5e15"/>
      <path id="Path_10693" data-name="Path 10693" d="M21.311,46.567H18.567a.684.684,0,0,1-.485-.2l-.485-.485H16.509V44.509h1.372a.684.684,0,0,1,.485.2l.485.485h2.176l.485-.485a.684.684,0,0,1,.485-.2h1.372v1.372H22.281l-.485.485a.684.684,0,0,1-.485.2" transform="translate(-5.184 -13.977)" fill="#ff5e15"/>
      <rect id="Rectangle_23" data-name="Rectangle 23" width="4.116" height="1.372" transform="translate(12.697 26.416)" fill="#ff5e15"/>
      <rect id="Rectangle_24" data-name="Rectangle 24" width="1.372" height="2.743" transform="matrix(0.966, -0.259, 0.259, 0.966, 10.186, 0.355)" fill="#ff5e15"/>
      <rect id="Rectangle_25" data-name="Rectangle 25" width="1.372" height="2.744" transform="translate(3.599 4.568) rotate(-44.99)" fill="#ff5e15"/>
      <rect id="Rectangle_26" data-name="Rectangle 26" width="1.372" height="2.744" transform="translate(0 11.511) rotate(-75.005)" fill="#ff5e15"/>
      <rect id="Rectangle_27" data-name="Rectangle 27" width="2.744" height="1.372" transform="translate(0 17.998) rotate(-15.009)" fill="#ff5e15"/>
      <rect id="Rectangle_28" data-name="Rectangle 28" width="2.744" height="1.372" transform="translate(3.599 24.941) rotate(-45)" fill="#ff5e15"/>
      <rect id="Rectangle_29" data-name="Rectangle 29" width="1.372" height="2.744" transform="translate(23.001 23.97) rotate(-44.99)" fill="#ff5e15"/>
      <rect id="Rectangle_30" data-name="Rectangle 30" width="1.372" height="2.744" transform="matrix(0.259, -0.966, 0.966, 0.259, 26.504, 18.613)" fill="#ff5e15"/>
      <rect id="Rectangle_31" data-name="Rectangle 31" width="2.744" height="1.372" transform="translate(26.504 10.896) rotate(-15.009)" fill="#ff5e15"/>
      <rect id="Rectangle_32" data-name="Rectangle 32" width="2.744" height="1.372" transform="translate(23 5.539) rotate(-45)" fill="#ff5e15"/>
      <rect id="Rectangle_33" data-name="Rectangle 33" width="2.743" height="1.372" transform="matrix(0.259, -0.966, 0.966, 0.259, 17.288, 2.65)" fill="#ff5e15"/>
    </g>
  </g>
</svg>
